Coordinates
version=1
nRows=21
nColumns=12
inDegrees=yes

Units are S.I. units (second, meters, Newtons, ...)
Angles are in degrees

endheader
time	SC_y	SC_z	SC_x	AC_y	AC_z	AC_x	GH_y	GH_z	GH_yy	EL_x	PS_y
       0.0              -27.08          20.11           44.2           46.7         -10.93         -15.01         -121.1          60.54          134.7          96.13          50.02
   0.02709              -27.08          20.11           44.2           46.7         -10.93         -15.01         -121.0          60.54          134.7          96.12          50.02
   0.05418              -27.08           20.1          44.19          46.69         -10.93         -15.01         -121.0          60.55          134.7          96.11          50.02
   0.08128              -27.08           20.1          44.19          46.69         -10.93         -15.01         -121.0          60.55          134.7           96.1          50.02
    0.1084              -27.08           20.1          44.18          46.69         -10.93         -15.01         -121.0          60.55          134.6          96.08          50.01
    0.1355              -27.08          20.09          44.17          46.69         -10.93         -15.01         -121.0          60.55          134.6          96.07          50.01
    0.1626              -27.09          20.09          44.17          46.68         -10.93         -15.01         -121.0          60.56          134.6          96.05          50.01
    0.1896              -27.09          20.09          44.16          46.68         -10.93         -15.01         -120.9          60.56          134.6          96.04          50.01
    0.2167              -27.09          20.08          44.15          46.68         -10.93         -15.01         -120.9          60.56          134.6          96.02           50.0
    0.2438              -27.09          20.08          44.14          46.67         -10.93         -15.01         -120.9          60.57          134.6           96.0           50.0
    0.2709               -27.1          20.07          44.13          46.67         -10.92          -15.0         -120.9          60.57          134.5          95.98           50.0
     0.298               -27.1          20.07          44.12          46.66         -10.92          -15.0         -120.8          60.57          134.5          95.96          49.99
    0.3251               -27.1          20.06          44.11          46.66         -10.92          -15.0         -120.8          60.58          134.5          95.93          49.99
    0.3522              -27.11          20.06           44.1          46.65         -10.92          -15.0         -120.8          60.58          134.5          95.91          49.99
    0.3793              -27.11          20.05          44.09          46.65         -10.92          -15.0         -120.7          60.59          134.4          95.88          49.98
    0.4064              -27.12          20.04          44.07          46.64         -10.92          -15.0         -120.7          60.59          134.4          95.85          49.98
    0.4335              -27.12          20.04          44.06          46.64         -10.92          -15.0         -120.6           60.6          134.4          95.82          49.97
    0.4606              -27.13          20.03          44.04          46.63         -10.91          -15.0         -120.6          60.61          134.3          95.78          49.97
    0.4877              -27.13          20.02          44.02          46.62         -10.91          -15.0         -120.5          60.61          134.3          95.74          49.96
    0.5148              -27.14          20.01           44.0          46.61         -10.91          -15.0         -120.5          60.62          134.2           95.7          49.95
    0.5418              -27.14           20.0          43.98           46.6         -10.91         -14.99         -120.4          60.63          134.2          95.65          49.94
